<svg width="24" height="24" viewBox="0 0 24 24" fill="none" xmlns="http://www.w3.org/2000/svg">
<g clip-path="url(#clip0_2284_954)">
<path d="M23.1195 0.871593C22.8069 0.559781 22.4291 0.321183 22.0132 0.172989C21.5973 0.0247954 21.1538 -0.0293027 20.7145 0.0145927C17.9215 0.284593 8.52849 1.44759 4.90049 5.07159C3.16627 6.81055 2.13789 9.13042 2.01397 11.5832C1.89005 14.036 2.67937 16.4477 4.2295 18.3526L0.289501 22.2926C0.107343 22.4812 0.00654845 22.7338 0.00882687 22.996C0.0111053 23.2582 0.116274 23.509 0.301682 23.6944C0.48709 23.8798 0.737902 23.985 1.0001 23.9873C1.2623 23.9895 1.5149 23.8888 1.7035 23.7066L5.64349 19.7666C7.54799 21.3188 9.96036 22.1098 12.4142 21.9866C14.868 21.8634 17.189 20.8347 18.9285 19.0996C22.6045 15.4226 23.7285 6.05859 23.9875 3.27659C24.0298 2.83646 23.9739 2.39243 23.8238 1.97652C23.6737 1.56062 23.4331 1.18323 23.1195 0.871593V0.871593ZM17.5195 17.6816C16.156 19.0401 14.3447 19.8559 12.4238 19.9768C10.5028 20.0977 8.60355 19.5154 7.08049 18.3386L16.7125 8.70659C16.8946 8.51799 16.9954 8.26539 16.9932 8.00319C16.9909 7.741 16.8857 7.49018 16.7003 7.30477C16.5149 7.11937 16.2641 7.0142 16.0019 7.01192C15.7397 7.00964 15.4871 7.11043 15.2985 7.29259L5.66149 16.9246C4.48447 15.4016 3.90203 13.5023 4.02293 11.5813C4.14383 9.66029 4.95981 7.84898 6.31849 6.48559C8.82749 3.97759 15.7455 2.49959 20.9075 2.00459C21.0537 1.99037 21.2012 2.00852 21.3396 2.05777C21.478 2.10702 21.6038 2.18615 21.7082 2.28954C21.8125 2.39293 21.8928 2.51804 21.9433 2.65597C21.9938 2.7939 22.0134 2.94127 22.0005 3.08759C21.5005 8.47459 20.0595 15.1366 17.5145 17.6816H17.5195Z" fill="#7EA46F"/>
</g>
<defs>
<clipPath id="clip0_2284_954">
<rect width="24" height="24" fill="white"/>
</clipPath>
</defs>
</svg>
